<?xml version="1.0" encoding="UTF-8" standalone="no"?>
<!-- Created with Inkscape (http://www.inkscape.org/) -->

<svg
   xmlns:dc="http://purl.org/dc/elements/1.1/"
   xmlns:cc="http://creativecommons.org/ns#"
   xmlns:rdf="http://www.w3.org/1999/02/22-rdf-syntax-ns#"
   xmlns:svg="http://www.w3.org/2000/svg"
   xmlns="http://www.w3.org/2000/svg"
   xmlns:sodipodi="http://sodipodi.sourceforge.net/DTD/sodipodi-0.dtd"
   xmlns:inkscape="http://www.inkscape.org/namespaces/inkscape"
   width="210mm"
   height="297mm"
   viewBox="0 0 744.09448819 1052.3622047"
   id="svg3455"
   version="1.1"
   inkscape:version="0.91 r13725"
   sodipodi:docname="magmaboss.svg">
  <defs
     id="defs3457" />
  <sodipodi:namedview
     id="base"
     pagecolor="#ffffff"
     bordercolor="#666666"
     borderopacity="1.0"
     inkscape:pageopacity="0.0"
     inkscape:pageshadow="2"
     inkscape:zoom="1.05"
     inkscape:cx="375"
     inkscape:cy="519.13171"
     inkscape:document-units="px"
     inkscape:current-layer="layer1"
     showgrid="false"
     inkscape:object-nodes="true"
     inkscape:snap-others="false"
     inkscape:snap-nodes="false"
     inkscape:window-width="1366"
     inkscape:window-height="706"
     inkscape:window-x="-8"
     inkscape:window-y="-8"
     inkscape:window-maximized="1" />
  <metadata
     id="metadata3460">
    <rdf:RDF>
      <cc:Work
         rdf:about="">
        <dc:format>image/svg+xml</dc:format>
        <dc:type
           rdf:resource="http://purl.org/dc/dcmitype/StillImage" />
        <dc:title></dc:title>
      </cc:Work>
    </rdf:RDF>
  </metadata>
  <g
     inkscape:label="Layer 1"
     inkscape:groupmode="layer"
     id="layer1">
    <path
       style="opacity:1;fill:#d45500;fill-opacity:1"
       d="m 608.57141,676.17174 c -8.76492,-9.73019 -124.0043,28.56711 -174.7619,28.57142 -50.76077,0.004 -144.2496,113.13146 -2.38095,-154.28571 35.00332,-65.97996 55.15196,-232.99075 105.23809,-224.76191 66.27117,10.88794 341.54856,649.81554 71.90476,350.4762 z"
       id="path3463"
       inkscape:connector-curvature="0"
       sodipodi:nodetypes="sssss" />
    <path
       style="opacity:1;fill:#d45500;fill-opacity:1"
       d="m 637.14285,649.50507 c 135.31892,109.72409 114.04521,121.28632 -46.66666,99.99999 -28.67874,-3.79851 0,0 -278.09524,-9.5238 -49.93934,-1.71025 243.45175,-180.95238 272.38095,-180.95238 28.9292,0 -313.66368,-206.33311 52.38095,90.47619 z"
       id="path3465-5"
       inkscape:connector-curvature="0"
       sodipodi:nodetypes="sssss" />
    <path
       style="opacity:1;fill:#d45500;fill-opacity:1"
       d="m 619.0476,442.3622 c 0,57.5954 -28.83923,35.71428 -56.19048,35.71428 -27.35125,0 -100,32.35732 -100,-25.23809 0,-57.59541 26.93447,-235.71428 54.28571,-235.71428 27.35125,0 101.90477,167.64268 101.90477,225.23809 z"
       id="path3523"
       inkscape:connector-curvature="0"
       sodipodi:nodetypes="sssss" />
    <path
       style="opacity:1;fill:#2b1100;fill-opacity:1"
       d="m 589.5238,408.0765 c 4.76195,1.53427 -6.99084,21.22259 1.86325,7.03837 11.31104,-18.12024 -109.09176,20.1821 -103.66657,-0.32995 10.72711,-6.5333 13.52933,1.81753 20.82361,1.28533 7.29436,-0.53219 9.58077,-6.58277 27.61056,-6.56447 l 24.32154,-4.28642 z"
       id="path3526"
       inkscape:connector-curvature="0"
       sodipodi:nodetypes="cscsccc" />
    <path
       style="opacity:1;fill:#fff6d5;fill-opacity:1"
       id="path3529"
       sodipodi:type="arc"
       sodipodi:cx="528.57141"
       sodipodi:cy="304.26697"
       sodipodi:rx="22.857143"
       sodipodi:ry="19.523809"
       sodipodi:start="0"
       sodipodi:end="6.1289934"
       d="m 551.42855,304.26697 a 22.857143,19.523809 0 0 1 -21.97626,19.5093 22.857143,19.523809 0 0 1 -23.67013,-18.00559 22.857143,19.523809 0 0 1 20.15185,-20.89712 22.857143,19.523809 0 0 1 25.22337,16.39491"
       sodipodi:open="true" />
    <path
       style="opacity:1;fill:#000000;fill-opacity:1"
       d="m 539.04762,305.69553 c 0,6.14045 -3.84134,11.18342 -8.69892,11.42008 -4.85758,0.23666 -16.61406,-2.51284 -16.98849,-8.63505 -0.37442,-6.12221 10.76705,-13.4287 15.59577,-14.13726 4.82872,-0.70856 16.85671,-1.23258 17.60334,4.83502"
       id="path3531"
       inkscape:connector-curvature="0"
       sodipodi:nodetypes="csssc" />
    <path
       style="opacity:1;fill:#000000;fill-opacity:1"
       d="m 473.33331,494.26699 c 45.31965,29.44853 52.59012,40.54963 135.2381,94.28571 0.88469,0.57521 49.54332,-54.89138 46.66667,-48.57143 -39.20166,86.12534 -46.82415,155.86744 51.42857,159.04762 31.34642,1.0146 -17.15103,26.68901 -16.19048,40 5.07041,70.26393 -47.14297,-98.76422 -140,-98.09524 -1.05521,0.008 -2.95967,-1.87829 -1.90476,-1.90476 30.99864,-0.7777 101.62538,18.74192 36.19048,-31.42857 -0.83742,-0.64207 -119.50075,-118.57859 -111.42858,-113.33333 z"
       id="rect3534"
       inkscape:connector-curvature="0"
       sodipodi:nodetypes="sssssssss" />
    <path
       style="opacity:1;fill:#000000;fill-opacity:1"
       d="m 479.04761,475.21935 30.47618,1.90476 c 1.05318,0.0658 121.46311,5.74327 120.95238,6.66666 L 511.42855,699.02889 c -0.51073,0.92341 -0.84953,1.90476 -1.90476,1.90476 l -42.85713,0 c -1.05524,0 -0.89308,-2.20483 -1.90476,-1.90476 L 352.38095,732.3622 c 56.7845,-16.84285 387.27437,-240.85486 126.66666,-257.14285 z"
       id="rect3537"
       inkscape:connector-curvature="0"
       sodipodi:nodetypes="sssssssss" />
    <path
       style="opacity:1;fill:#000000;fill-opacity:1"
       d="m 465.71428,516.17176 c -24.64408,-25.34415 268.24609,220.15501 256.19047,230 -8.90204,7.26968 -328.11067,-294.62541 -181.90476,1.42856 5.49615,11.12922 -169.264,-139.67306 -137.14286,-123.33332 46.3913,23.59886 151.88292,-16.5405 62.85715,-108.09524 z"
       id="rect3540"
       inkscape:connector-curvature="0"
       sodipodi:nodetypes="sssss" />
    <path
       style="opacity:1;fill:#483737;fill-opacity:1"
       d="m 495.23813,545.69556 c 9.49714,0 220.62967,199.4236 219.99999,190.4762 -0.19968,-2.8374 -180.02531,-134.34871 -173.33333,-132.38096 9.11141,2.67918 -14.28571,-11.03047 -14.28571,-19.99999 0,-8.96953 -41.87809,-38.09525 -32.38095,-38.09525 z"
       id="rect3543"
       inkscape:connector-curvature="0"
       sodipodi:nodetypes="sssss" />
  </g>
</svg>
