<?xml version="1.0" encoding="UTF-8" standalone="no"?>
<!-- Created with Inkscape (http://www.inkscape.org/) -->

<svg
   xmlns:dc="http://purl.org/dc/elements/1.1/"
   xmlns:cc="http://creativecommons.org/ns#"
   xmlns:rdf="http://www.w3.org/1999/02/22-rdf-syntax-ns#"
   xmlns:svg="http://www.w3.org/2000/svg"
   xmlns="http://www.w3.org/2000/svg"
   xmlns:sodipodi="http://sodipodi.sourceforge.net/DTD/sodipodi-0.dtd"
   xmlns:inkscape="http://www.inkscape.org/namespaces/inkscape"
   width="210"
   height="140"
   viewBox="0 0 210 140"
   id="svg2"
   version="1.1"
   inkscape:version="0.91 r13725"
   sodipodi:docname="magmarock.svg"
   inkscape:export-filename="C:\xampp\htdocs\AndresGawesomenauts\data\img\magmarock.png"
   inkscape:export-xdpi="90"
   inkscape:export-ydpi="90">
  <defs
     id="defs4">
    <inkscape:perspective
       sodipodi:type="inkscape:persp3d"
       inkscape:vp_x="0 : 526.18109 : 1"
       inkscape:vp_y="0 : 999.99998 : 0"
       inkscape:vp_z="744.09448 : 526.18109 : 1"
       inkscape:persp3d-origin="372.04724 : 350.78739 : 1"
       id="perspective3364" />
  </defs>
  <sodipodi:namedview
     id="base"
     pagecolor="#ffffff"
     bordercolor="#666666"
     borderopacity="1.0"
     inkscape:pageopacity="0.0"
     inkscape:pageshadow="2"
     inkscape:zoom="4.6375001"
     inkscape:cx="73.547394"
     inkscape:cy="30.942022"
     inkscape:document-units="px"
     inkscape:current-layer="layer1"
     showgrid="true"
     inkscape:object-nodes="false"
     inkscape:snap-intersection-paths="false"
     inkscape:snap-nodes="false"
     inkscape:snap-others="false"
     inkscape:snap-global="false"
     inkscape:window-width="1366"
     inkscape:window-height="706"
     inkscape:window-x="-8"
     inkscape:window-y="-8"
     inkscape:window-maximized="1"
     units="px">
    <inkscape:grid
       type="xygrid"
       id="grid3363"
       spacingx="70.000001"
       spacingy="70.000001" />
  </sodipodi:namedview>
  <metadata
     id="metadata7">
    <rdf:RDF>
      <cc:Work
         rdf:about="">
        <dc:format>image/svg+xml</dc:format>
        <dc:type
           rdf:resource="http://purl.org/dc/dcmitype/StillImage" />
        <dc:title></dc:title>
      </cc:Work>
    </rdf:RDF>
  </metadata>
  <g
     inkscape:label="Layer 1"
     inkscape:groupmode="layer"
     id="layer1"
     transform="translate(0,-912.36219)">
    <rect
       style="fill:#ff6600"
       id="rect3343"
       width="70.380554"
       height="70.153755"
       x="0.085723154"
       y="982.21454" />
    <path
       style="fill:#2b1100"
       d="m 24.904926,1019.7415 c 0.800452,-0.02 5.436172,0.5263 1e-6,3.0009 -2.521808,1.1479 5.375356,-0.1417 7.252061,1.5004 l 6.001707,5.2515 c 1.876704,1.6421 1.013872,6.9404 -1.750497,6.7519 l -11.003129,-0.7502 c -20.0561543,-1.3675 -5.547325,-11.2158 -8.252347,-9.0026 l 2.750782,-2.2506 c 1.930022,-1.5791 2.231507,-4.4318 5.001422,-4.5013 z"
       id="rect3345"
       inkscape:connector-curvature="0"
       sodipodi:nodetypes="sssssssss" />
    <rect
       style="fill:#2b1100"
       id="rect3349"
       width="7.7522035"
       height="12.253483"
       x="33.907486"
       y="1002.4866"
       rx="5.0014253"
       ry="2.0005622" />
    <path
       style="fill:#2b1100"
       d="m 21.153863,991.98362 27.007669,3.00085 c 1.865726,0.2073 5.081765,-6.74641 6.25178,-1.00029 0.705072,3.46272 0.151696,4.31955 -1.250355,5.00143 -0.99669,0.48474 -3.947842,-0.0195 -4.00114,2.75079 -0.386598,20.0941 -6.59757,-9.35071 -16.504684,-0.7502 -2.092357,1.8164 2.533422,10.3394 -5.501567,7.5021 0,0 -7.36074,-9.95958 -7.502133,-11.75333 -0.141392,-1.79376 -1.253413,-5.05733 1.50043,-4.75135 z"
       id="rect3351"
       inkscape:connector-curvature="0"
       sodipodi:nodetypes="ssssssszs" />
    <path
       style="fill:#2b1100"
       d="m 53.41303,1005.9876 c 1.939552,0 -0.397784,10.6549 -0.25007,11.7533 2.093232,15.5658 4.932917,17.1224 -5.251493,12.7537 -1.018557,-0.4369 -1.561444,2.0005 -3.500995,2.0005 -1.939552,0 -2.820215,-1.1259 -3.500996,-2.0005 -11.659716,-14.979 -5.93431,-13.2167 0,-11.2532 1.052216,0.3481 10.564003,-13.2538 12.503554,-13.2538 z"
       id="rect3353"
       inkscape:connector-curvature="0"
       sodipodi:nodetypes="sssssss" />
    <path
       style="fill:#2b1100"
       d="m 18.278042,1000.7361 c 2.737499,-0.6471 7.263434,7.7117 8.12731,8.5024 10.135525,9.2776 4.775638,8.4494 0,8.0023 -1.103487,-0.1033 -1.617209,2.0006 -3.62603,2.0006 -2.008822,0 -3.626031,-0.8923 -3.626031,-2.0006 l 0,-8.0023 c 0,-1.1083 -2.830194,-8.0403 -0.875249,-8.5024 z"
       id="rect3355"
       inkscape:connector-curvature="0"
       sodipodi:nodetypes="sssssss" />
    <path
       style="fill:#6c5353"
       d="m 25.780175,993.73412 c 6.95234,1.04791 14.785,3.00514 20.50583,3.00085 2.147359,-0.002 6.120404,-4.94214 6.12674,-3.62603 0.0065,1.35527 -3.496851,4.66068 -6.376812,4.37624 l -20.255758,-2.00057 c -2.136964,-0.21105 -3.165213,-0.47609 -4.126172,-1.37539 -1.788612,-1.67384 0.45105,-0.92905 4.126172,-0.3751 z"
       id="rect3361"
       inkscape:connector-curvature="0"
       sodipodi:nodetypes="sssssss" />
    <path
       style="fill:#6c5353"
       d="m 37.658552,1003.4869 c 1.246855,0 3.751067,0.3903 3.751067,0.8752 0,0.4849 -2.504212,0.8753 -3.751067,0.8753 -1.246854,0 -3.000853,-0.3904 -3.000853,-0.8753 0,-0.4849 1.753999,-0.8752 3.000853,-0.8752 z"
       id="rect3380"
       inkscape:connector-curvature="0"
       sodipodi:nodetypes="sssss" />
    <path
       style="fill:#6c5353"
       d="m 19.528399,1002.2365 c 0.623427,0 2.492023,2.517 3.125888,3.251 l 4.75135,5.5015 c 0.633865,0.734 6.500098,4.5013 0.375107,4.0012 -0.621359,-0.051 0.884973,-0.6505 -0.375107,-2.0006 l -7.00199,-7.5021 c -0.661696,-0.709 -1.498676,-3.251 -0.875248,-3.251 z"
       id="rect3382"
       inkscape:connector-curvature="0"
       sodipodi:nodetypes="sssssss" />
    <path
       style="fill:#6c5353"
       d="m 53.16296,1007.9882 c 1.385393,0 -2.902414,5.4068 -3.751066,6.5018 l -7.752204,10.0029 c 0.259189,-0.3345 -2.974455,0.021 -6.251777,-5.0015 -0.936148,-1.4347 6.845695,2.3601 8.252345,0.2501 l 2.500711,-3.7511 c 0.768478,-1.1527 5.616597,-8.0022 7.001991,-8.0022 z"
       id="rect3385"
       inkscape:connector-curvature="0"
       sodipodi:nodetypes="sssssss" />
    <path
       style="fill:#6c5353"
       d="m 25.65514,1019.7415 c -7.087727,7.2349 2.572262,3.1287 6.251778,6.7519 0.690996,0.6805 2.500711,-0.2195 2.500711,0.7502 0,0.9698 -6.351647,-0.39 -7.252061,-0.7502 L 23.4045,1024.993 c -0.900414,-0.3602 -5.751635,3.2204 -5.751635,2.2506 0,-0.9697 8.680926,-8.1948 8.002275,-7.5021 z"
       id="rect3388"
       inkscape:connector-curvature="0"
       sodipodi:nodetypes="sssssss" />
  </g>
</svg>
