<?xml version="1.0" encoding="UTF-8" standalone="no"?>
<!-- Created with Inkscape (http://www.inkscape.org/) -->

<svg
   xmlns:dc="http://purl.org/dc/elements/1.1/"
   xmlns:cc="http://creativecommons.org/ns#"
   xmlns:rdf="http://www.w3.org/1999/02/22-rdf-syntax-ns#"
   xmlns:svg="http://www.w3.org/2000/svg"
   xmlns="http://www.w3.org/2000/svg"
   xmlns:sodipodi="http://sodipodi.sourceforge.net/DTD/sodipodi-0.dtd"
   xmlns:inkscape="http://www.inkscape.org/namespaces/inkscape"
   width="70"
   height="70"
   viewBox="0 0 70.000002 69.999997"
   id="svg3492"
   version="1.1"
   inkscape:version="0.91 r13725"
   sodipodi:docname="magmacreep.svg"
   inkscape:export-filename="C:\xampp\htdocs\AndresGawesomenauts\data\img\magmacreep.png"
   inkscape:export-xdpi="90"
   inkscape:export-ydpi="90">
  <defs
     id="defs3494" />
  <sodipodi:namedview
     id="base"
     pagecolor="#ffffff"
     bordercolor="#666666"
     borderopacity="1.0"
     inkscape:pageopacity="0.0"
     inkscape:pageshadow="2"
     inkscape:zoom="2"
     inkscape:cx="225.5"
     inkscape:cy="98.497526"
     inkscape:document-units="px"
     inkscape:current-layer="layer1"
     showgrid="true"
     inkscape:window-width="1366"
     inkscape:window-height="706"
     inkscape:window-x="-8"
     inkscape:window-y="-8"
     inkscape:window-maximized="1"
     objecttolerance="1"
     gridtolerance="1"
     guidetolerance="1"
     units="px">
    <inkscape:grid
       type="xygrid"
       id="grid3546"
       spacingx="70.000001"
       spacingy="70.000001" />
  </sodipodi:namedview>
  <metadata
     id="metadata3497">
    <rdf:RDF>
      <cc:Work
         rdf:about="">
        <dc:format>image/svg+xml</dc:format>
        <dc:type
           rdf:resource="http://purl.org/dc/dcmitype/StillImage" />
        <dc:title></dc:title>
      </cc:Work>
    </rdf:RDF>
  </metadata>
  <g
     inkscape:label="Layer 1"
     inkscape:groupmode="layer"
     id="layer1"
     transform="translate(0,-982.36225)">
    <g
       id="g3548"
       transform="matrix(0.11527008,0,0,0.15485013,-14.408382,944.08973)">
      <path
         sodipodi:nodetypes="sssss"
         inkscape:connector-curvature="0"
         id="path3508"
         d="m 580.95237,502.36219 c 300.17368,264.07222 -10.37268,167.35648 -220.95238,179.52382 -82.42276,4.7624 -247.48652,12.66906 -182.85714,-129.04763 23.89447,-52.39483 98.64108,-447.34239 222.85714,-171.90477 40.55546,89.92797 120.94049,68.63423 180.95238,121.42858 z"
         style="opacity:1;fill:#ffcc00;fill-opacity:1" />
      <path
         sodipodi:nodetypes="sssss"
         inkscape:connector-curvature="0"
         id="path3513"
         d="m 298.09523,357.1241 c 0,9.99372 -18.13729,13.33333 -25.23809,13.33333 -7.1008,0 -11.90476,-10.95866 -11.90476,-20.95238 0,-9.99372 40.99443,-25.71429 48.09524,-25.71429 7.1008,0 -10.95239,23.33961 -10.95239,33.33334 z"
         style="opacity:1;fill:#fff6d5;fill-opacity:1" />
      <path
         sodipodi:nodetypes="sssss"
         inkscape:connector-curvature="0"
         id="path3515"
         d="m 303.80951,332.3622 c 0,4.20788 -14.21416,26.66667 -20,26.66667 -5.78584,0 -15.2381,7.06502 -15.23809,2.85714 -10e-6,-4.20788 9.45225,-13.33334 15.23809,-13.33334 5.78584,0 20,-20.39835 20,-16.19047 z"
         style="opacity:1;fill:#000000;fill-opacity:1" />
      <path
         sodipodi:nodetypes="ccccc"
         inkscape:connector-curvature="0"
         id="rect3517"
         d="m 280.95238,478.07651 c 142.14557,-74.6422 308.48755,57.99207 361.90476,114.28571 L 369.52381,464.74317 187.61904,636.17174 c 31.11111,-52.69841 92.54763,-84.16904 93.33334,-158.09523 z"
         style="opacity:1;fill:#000000;fill-opacity:1" />
      <path
         sodipodi:nodetypes="sssssss"
         inkscape:connector-curvature="0"
         id="rect3520"
         d="m 354.28572,350.45744 c -0.54354,-26.90308 -27.66368,176.98057 -1.90476,184.76191 l 274.28571,82.85714 C 675.71277,632.8925 361.11224,522.92045 200.00001,657.12411 179.3247,674.34628 255.2381,574.50887 255.2381,547.6003 l 0,-12.38095 c 0,58.96669 99.29597,-172.46983 99.04762,-184.76191 z"
         style="opacity:1;fill:#000000;fill-opacity:1" />
      <path
         sodipodi:nodetypes="sssssssss"
         inkscape:connector-curvature="0"
         id="rect3523"
         d="m 252.38093,390.45744 c 64.1918,38.80961 131.59192,199.03137 217.14291,67.61905 13.50565,-20.74563 -24.60578,35.89525 25.71426,69.52378 L 690.4762,658.07652 C 712.84866,673.02788 495.96301,551.25353 476.19051,569.50506 l -86.66672,80 C 485.9323,491.07714 301.58833,570.96171 240.95239,624.74318 L 350.4762,527.60027 C 370.60721,509.74493 229.35377,376.53549 252.38093,390.45744 Z"
         style="opacity:1;fill:#000000;fill-opacity:1" />
      <path
         sodipodi:nodetypes="sssssss"
         inkscape:connector-curvature="0"
         id="rect3526"
         d="m 366.66667,519.02886 c 32.65851,1.54563 65.60305,5.66551 93.33334,-37.14286 2.58168,-3.98545 22.51532,51.98023 26.66667,54.28572 147.97424,82.17896 -26.87313,1.56672 -28.57143,-2.85715 -15.89689,-41.40954 -45.15879,12.97553 -56.19048,32.38095 -2.34679,4.12814 -6.13911,-14.90974 -3.80952,-19.04761 0,0 -36.17184,-27.84353 -31.42858,-27.61905 z"
         style="opacity:1;fill:#483737;fill-opacity:1" />
      <path
         sodipodi:nodetypes="sssssssss"
         inkscape:connector-curvature="0"
         id="rect3529"
         d="m 305.71428,479.98126 34.28571,-78.09524 c 1.90888,-4.348 -22.85714,81.9181 -22.85714,86.66667 0,13.01587 -14.47174,12.14033 -10.47619,37.14286 0.74934,4.68907 -5.16504,-0.69537 -6.66667,3.80952 l -2.85714,8.57143 c -1.50163,4.50489 -87.04836,108.92376 -84.7619,104.76191 l 84.7619,-154.28572 c 2.28645,-4.16186 6.66255,-4.22343 8.57143,-8.57143 z"
         style="opacity:1;fill:#483737;fill-opacity:1" />
      <path
         sodipodi:nodetypes="sssssssss"
         inkscape:connector-curvature="0"
         id="rect3535"
         d="m 517.14287,513.31458 30.47618,9.52381 c 4.53243,1.41638 8.77146,1.67637 12.38096,4.76191 l 59.04762,50.47618 c 3.60949,3.08553 -61.26285,-41.20375 -65.71429,-42.85714 l -33.33333,-12.38095 c -4.45143,-1.65339 -9.81967,-3.47244 -13.33333,-6.66667 L 475.23811,487.6003 c -3.51367,-3.19424 37.37235,24.2979 41.90476,25.71428 z"
         style="opacity:1;fill:#483737;fill-opacity:1" />
      <path
         sodipodi:nodetypes="sssssss"
         inkscape:connector-curvature="0"
         id="rect3538"
         d="m 398.09524,468.55267 14.28572,0 c 1.58285,0 40,6.98858 40,8.57144 0,1.58285 -38.41715,-2.85715 -40,-2.85715 l -14.28572,0 c -1.58286,0 -25.71428,-14.60762 -25.71428,-16.19047 0,-1.58286 24.13142,10.47618 25.71428,10.47618 z"
         style="opacity:1;fill:#483737;fill-opacity:1" />
      <path
         sodipodi:nodetypes="csssssssc"
         inkscape:connector-curvature="0"
         id="rect3541"
         d="m 297.14285,575.21936 66.66667,0 c 1.58285,0 153.0111,12.41303 151.42857,12.38095 l -140.95238,-2.85714 c -1.58254,-0.0321 -13.71213,1.48422 -15.23809,1.90476 l -120.95239,33.33333 c -1.52597,0.42055 54.81617,-24.92896 56.19048,-25.71428 l 20,-11.42858 c 1.37431,-0.78531 -76.82096,-2.85714 -17.14286,-7.61904 z"
         style="opacity:1;fill:#483737;fill-opacity:1" />
      <path
         sodipodi:nodetypes="csssscssc"
         inkscape:connector-curvature="0"
         id="rect3544"
         d="m 329.52381,319.98124 24.76191,4.7619 c 1.55438,0.29892 4.8255,15.83308 5.71428,17.14286 l 18.09524,26.66668 c 0.88877,1.30976 72.62956,86.74531 71.42858,85.71428 L 348.57143,367.60029 c 3.66277,11.17378 -1.80567,4.45961 -22.85714,-23.80952 l -33.33334,-44.76191 c -0.94539,-1.26952 37.14286,20.95238 37.14286,20.95238 z"
         style="opacity:1;fill:#000000;fill-opacity:1" />
      <path
         sodipodi:nodetypes="scsssssss"
         inkscape:connector-curvature="0"
         id="rect3547"
         d="m 327.61904,328.55267 17.14287,8.57143 c -4.76191,11.42857 7.95719,1.39833 8.57142,2.85714 l 7.61905,18.09524 c 0.61424,1.45882 38.38984,41.92729 37.14286,40.95238 l -52.38096,-40.95238 c -1.24698,-0.97491 -5.58961,-6.45914 -6.66667,-7.61905 l -37.14285,-40 c -1.07705,-1.1599 24.29854,17.38737 25.71428,18.09524 z"
         style="opacity:1;fill:#483737;fill-opacity:1" />
      <path
         sodipodi:nodetypes="ccccc"
         inkscape:connector-curvature="0"
         id="rect3357"
         d="m 362.85715,340.93363 89.52379,-26.66667 -75.2381,39.99997 -10.47617,-11.42857 z"
         style="opacity:1;fill:#000000;fill-opacity:1" />
      <path
         sodipodi:nodetypes="ccccc"
         inkscape:connector-curvature="0"
         id="rect3357-1"
         d="M 401.90477,379.98127 449.5238,369.50508 408.57141,397.1241 394.28572,379.02886 Z"
         style="opacity:1;fill:#000000;fill-opacity:1" />
      <path
         sodipodi:nodetypes="ccccc"
         inkscape:connector-curvature="0"
         id="rect3357-5"
         d="m 330.4762,298.0765 124.76188,-38.09524 -106.66667,57.14283 -10.47617,-9.52381 z"
         style="opacity:1;fill:#000000;fill-opacity:1" />
      <path
         sodipodi:nodetypes="sssssss"
         inkscape:connector-curvature="0"
         id="rect3387"
         d="m 321.42857,298.07649 c -11.84178,27.94612 39.32024,21.66096 51.90477,38.57143 l 30.47617,40.95239 c 4.09093,5.49718 13.28815,42.08289 2.38097,21.42855 -11.59183,-21.95083 -33.17859,-46.37193 -39.5238,-49.04761 -13.60518,-5.7371 8.14621,8.97138 8.57143,-3.80953 0.83934,-25.22819 -41.88802,-76.22954 -53.80954,-48.09523 z"
         style="opacity:1;fill:#ffcc00;fill-opacity:1" />
      <path
         sodipodi:nodetypes="sssssssss"
         inkscape:connector-curvature="0"
         id="rect3390"
         d="m 365.7143,336.17172 4.7619,0 c 2.63809,0 4.7619,2.12381 4.7619,4.76191 l 0,6.66665 c 0,2.63809 6.16911,12.60836 3.80953,11.42857 l -13.33333,-6.66667 c -2.35959,-1.17979 -4.76191,-2.12381 -4.76191,-4.7619 l 0,-6.66665 c 0,-2.6381 2.12381,-4.76191 4.76191,-4.76191 z"
         style="opacity:1;fill:#ffcc00;fill-opacity:1" />
      <path
         sodipodi:nodetypes="sccss"
         inkscape:connector-curvature="0"
         id="path3405"
         d="m 684.76191,675.21932 c -126.95552,17.80593 -293.6916,5.16755 -423.33334,3.80953 -35.2787,-0.95404 -26.44188,-1.08015 -55.71428,-15.23811 16.44189,-14.15795 64.26249,-9.5238 87.14286,-9.5238 22.88036,0 413.72153,17.8925 391.90476,20.95238 z"
         style="opacity:0.5;fill:#000000;fill-opacity:1" />
      <ellipse
         ry="43.333332"
         rx="20"
         cy="472.83841"
         cx="243.80952"
         id="path3414"
         style="opacity:1;fill:#000000;fill-opacity:1" />
      <path
         sodipodi:nodetypes="ccccc"
         inkscape:connector-curvature="0"
         id="rect3357-1-7"
         d="m 260,427.12413 -15.23811,37.14285 -11.42858,-40.00003 9.52384,-0.95238 z"
         style="opacity:1;fill:#fff6d5;fill-opacity:1" />
      <path
         sodipodi:nodetypes="ccccc"
         inkscape:connector-curvature="0"
         id="rect3357-1-7-8"
         d="m 257.14286,525.21937 -12.38096,-32.38096 -29.52382,46.66664 20.95241,-5.71429 z"
         style="opacity:1;fill:#fff6d5;fill-opacity:1" />
      <path
         sodipodi:nodetypes="sssss"
         inkscape:connector-curvature="0"
         id="path3449"
         d="m 266.66666,509.50504 c 0.45774,9.98323 -18.47811,40.95238 -29.52381,40.95238 -11.0457,0 -29.52381,-3.33962 -29.52381,-13.33334 0,-9.99372 6.05049,-15.71023 12.38095,-24.7619 6.59911,-9.43579 46.54581,-5.49315 46.66667,-2.85714 z"
         style="opacity:1;fill:#ffcc00;fill-opacity:1" />
      <path
         sodipodi:nodetypes="sssss"
         inkscape:connector-curvature="0"
         id="path3452"
         d="m 267.61905,436.17172 c 0,8.49835 -10.74545,3.38294 -20.47618,-4.76191 -7.46179,-6.2457 -19.52381,8.9698 -19.52381,4.76191 0,-4.20789 -7.34978,-26.66667 2.38095,-26.66667 9.73073,0 37.61904,22.45879 37.61904,26.66667 z"
         style="opacity:1;fill:#ffcc00;fill-opacity:1" />
    </g>
  </g>
</svg>
