<?xml version="1.0" encoding="UTF-8" standalone="no"?>
<!-- Created with Inkscape (http://www.inkscape.org/) -->

<svg
   xmlns:dc="http://purl.org/dc/elements/1.1/"
   xmlns:cc="http://creativecommons.org/ns#"
   xmlns:rdf="http://www.w3.org/1999/02/22-rdf-syntax-ns#"
   xmlns:svg="http://www.w3.org/2000/svg"
   xmlns="http://www.w3.org/2000/svg"
   xmlns:sodipodi="http://sodipodi.sourceforge.net/DTD/sodipodi-0.dtd"
   xmlns:inkscape="http://www.inkscape.org/namespaces/inkscape"
   width="210mm"
   height="297mm"
   viewBox="0 0 744.09448819 1052.3622047"
   id="svg2"
   version="1.1"
   inkscape:version="0.91 r13725"
   sodipodi:docname="magmarock.svg">
  <defs
     id="defs4">
    <inkscape:perspective
       sodipodi:type="inkscape:persp3d"
       inkscape:vp_x="0 : 526.1811 : 1"
       inkscape:vp_y="0 : 1000 : 0"
       inkscape:vp_z="744.09449 : 526.1811 : 1"
       inkscape:persp3d-origin="372.04724 : 350.7874 : 1"
       id="perspective3364" />
  </defs>
  <sodipodi:namedview
     id="base"
     pagecolor="#ffffff"
     bordercolor="#666666"
     borderopacity="1.0"
     inkscape:pageopacity="0.0"
     inkscape:pageshadow="2"
     inkscape:zoom="0.35"
     inkscape:cx="389.28571"
     inkscape:cy="504.28571"
     inkscape:document-units="px"
     inkscape:current-layer="layer1"
     showgrid="false"
     inkscape:object-nodes="false"
     inkscape:snap-intersection-paths="false"
     inkscape:snap-nodes="false"
     inkscape:snap-others="false"
     inkscape:snap-global="false"
     inkscape:window-width="1366"
     inkscape:window-height="706"
     inkscape:window-x="-8"
     inkscape:window-y="-8"
     inkscape:window-maximized="1" />
  <metadata
     id="metadata7">
    <rdf:RDF>
      <cc:Work
         rdf:about="">
        <dc:format>image/svg+xml</dc:format>
        <dc:type
           rdf:resource="http://purl.org/dc/dcmitype/StillImage" />
        <dc:title></dc:title>
      </cc:Work>
    </rdf:RDF>
  </metadata>
  <g
     inkscape:label="Layer 1"
     inkscape:groupmode="layer"
     id="layer1">
    <rect
       style="fill:#ff6600"
       id="rect3343"
       width="1377.1429"
       height="822.85712"
       x="-314.28571"
       y="78.076492" />
    <path
       style="fill:#2b1100"
       d="m 282.85714,558.07648 c 9.14542,-0.2296 62.11002,6.01314 10e-6,34.28571 -28.81247,13.11549 61.41518,-1.61891 82.85714,17.14283 l 68.57143,60.00006 c 21.44195,18.76173 11.58382,79.29626 -19.99999,77.14282 l -125.7143,-8.57143 C 59.423397,722.45275 225.19145,609.93279 194.28571,635.21936 l 31.42857,-25.71434 c 22.05112,-18.04186 25.49568,-50.63404 57.14286,-51.42854 z"
       id="rect3345"
       inkscape:connector-curvature="0"
       sodipodi:nodetypes="sssssssss" />
    <rect
       style="fill:#2b1100"
       id="rect3349"
       width="88.571426"
       height="140"
       x="385.71429"
       y="360.93362"
       rx="57.142899"
       ry="22.857069" />
    <path
       style="fill:#2b1100"
       d="m 240.00003,240.93365 308.57134,34.28571 c 21.31652,2.3685 58.0608,-77.07993 71.4286,-11.42861 8.05568,39.56269 1.73317,49.35226 -14.28571,57.14294 -11.3875,5.53824 -45.10537,-0.22277 -45.71432,31.42853 -4.417,229.58208 -75.37936,-106.83481 -188.57134,-8.57143 -23.90585,20.75297 28.94517,118.13126 -62.85718,85.71433 0,0 -84.09882,-113.79162 -85.71428,-134.2858 -1.61546,-20.49418 -14.32065,-57.78162 17.14289,-54.28567 z"
       id="rect3351"
       inkscape:connector-curvature="0"
       sodipodi:nodetypes="ssssssszs" />
    <path
       style="fill:#2b1100"
       d="m 608.57143,400.93364 c 22.16,0 -4.54481,121.7358 -2.85714,134.28567 23.91586,177.84336 56.36017,195.62811 -60,145.71438 -11.63734,-4.99194 -17.84,22.8571 -40,22.8571 -22.16,0 -32.22186,-12.86472 -40,-22.8571 -133.21602,-171.13927 -67.80141,-151.00459 0,-128.57152 12.0219,3.97762 120.69714,-151.42853 142.85714,-151.42853 z"
       id="rect3353"
       inkscape:connector-curvature="0"
       sodipodi:nodetypes="sssssss" />
    <path
       style="fill:#2b1100"
       d="m 207.14285,340.93365 c 31.27681,-7.39336 82.98708,88.10825 92.85714,97.14281 115.80164,105.99903 54.5632,96.53713 0,91.42865 -12.6077,-1.1804 -18.47714,22.8571 -41.42857,22.8571 -22.95143,0 -41.42857,-10.19426 -41.42857,-22.8571 l 0,-91.42865 c 0,-12.66283 -32.33588,-91.86296 -10,-97.14281 z"
       id="rect3355"
       inkscape:connector-curvature="0"
       sodipodi:nodetypes="sssssss" />
    <path
       style="fill:#6c5353"
       d="m 292.85714,260.93365 c 79.43273,11.97271 168.9234,34.33478 234.28572,34.28571 24.53427,-0.0184 69.9276,-56.46553 69.99999,-41.42857 0.0746,15.48445 -39.95265,53.24982 -72.85714,49.99999 L 292.85714,280.93365 c -24.4155,-2.41141 -36.16358,-5.4395 -47.14285,-15.71428 -20.43547,-19.12424 5.15339,-10.61469 47.14285,-4.28572 z"
       id="rect3361"
       inkscape:connector-curvature="0"
       sodipodi:nodetypes="sssssss" />
    <path
       style="fill:#6c5353"
       d="m 428.57143,372.36221 c 14.24572,0 42.85715,4.46 42.85715,10 0,5.54 -28.61143,10 -42.85715,10 -14.24571,0 -34.28571,-4.46 -34.28571,-10 0,-5.54 20.04,-10 34.28571,-10 z"
       id="rect3380"
       inkscape:connector-curvature="0"
       sodipodi:nodetypes="sssss" />
    <path
       style="fill:#6c5353"
       d="m 221.42858,358.0765 c 7.12285,0 28.47217,28.75726 35.71428,37.14286 l 54.28571,62.85715 c 7.24211,8.3856 74.26571,51.42857 4.28572,45.71429 -7.09923,-0.5797 10.1111,-7.43198 -4.28572,-22.85715 l -80,-85.71429 c -7.56009,-8.10009 -17.12285,-37.14286 -9.99999,-37.14286 z"
       id="rect3382"
       inkscape:connector-curvature="0"
       sodipodi:nodetypes="sssssss" />
    <path
       style="fill:#6c5353"
       d="m 605.71429,423.79078 c 15.82857,0 -33.16101,61.77457 -42.85714,74.28571 l -88.57143,114.28572 c 2.96132,-3.82106 -33.98411,0.24275 -71.42857,-57.14286 -10.69579,-16.39186 78.21428,26.96429 94.28571,2.85714 l 28.57143,-42.85714 c 8.78011,-13.17017 64.17143,-91.42857 80,-91.42857 z"
       id="rect3385"
       inkscape:connector-curvature="0"
       sodipodi:nodetypes="sssssss" />
    <path
       style="fill:#6c5353"
       d="m 291.42857,558.07649 c -80.97957,82.66145 29.38893,35.74578 71.42859,77.14285 7.89485,7.77417 28.57143,-2.50857 28.57143,8.57143 0,11.08 -72.56962,-4.45642 -82.85714,-8.57143 L 265.71429,618.07648 C 255.42676,613.96148 200,654.87077 200,643.79077 c 0,-11.08 99.18238,-93.62913 91.42857,-85.71428 z"
       id="rect3388"
       inkscape:connector-curvature="0"
       sodipodi:nodetypes="sssssss" />
  </g>
</svg>
